<?xml version="1.0" encoding="UTF-8" standalone="no" ?>
<!DOCTYPE svg PUBLIC "-//W3C//DTD SVG 1.1//EN" "http://www.w3.org/Graphics/SVG/1.1/DTD/svg11.dtd">
<svg xmlns="http://www.w3.org/2000/svg" xmlns:xlink="http://www.w3.org/1999/xlink" version="1.1" width="145.505" height="141.1933" xml:space="preserve">
<desc>Created with Fabric.js 1.6.0-rc.1</desc>
<defs></defs>
<g style="stroke: none; stroke-width: 1; stroke-dasharray: none; stroke-linecap: butt; stroke-linejoin: miter; stroke-miterlimit: 10; fill: none; fill-rule: nonzero; opacity: 1;" transform="translate(10.000000000000007 17) scale(3.77 3.77)" >
  <path d="M 27.038 3.009 c -1.004 -1.011 -2.758 -1.018 -3.769 -0.015 c -1.043 1.034 -1.051 2.725 -0.016 3.769 c 2.909 2.932 3.728 7.125 2.137 10.945 c -1.259 3.021 -4.411 6.248 -9.487 6.248 c -4.322 0 -8.041 -2.385 -9.706 -6.223 c -1.626 -3.75 -0.904 -7.931 1.885 -10.91 c 1.004 -1.073 0.948 -2.762 -0.125 -3.767 C 6.926 2.091 5.156 2.149 4.191 3.181 c -4.263 4.556 -5.367 10.945 -2.882 16.674 c 2.522 5.817 8.115 9.432 14.595 9.432 c 6.438 0 11.958 -3.65 14.407 -9.528 C 32.744 13.914 31.491 7.497 27.038 3.009 z" style="stroke: none; stroke-width: 1; stroke-dasharray: none; stroke-linecap: butt; stroke-linejoin: miter; stroke-miterlimit: 10; fill: #059e29; fill-rule: nonzero; opacity: 1;" transform="" stroke-linecap="round" />
</g>
<g style="stroke: none; stroke-width: 1; stroke-dasharray: none; stroke-linecap: butt; stroke-linejoin: miter; stroke-miterlimit: 10; fill: none; fill-rule: nonzero; opacity: 1;" transform="translate(13.480000000000018 10) scale(0.3 0.3)" >
  <path d="M 310.277 107.305 c -43.976 0 -92.099 63.076 -107.475 84.968 c -15.52 -22.071 -63.487 -84.771 -107.332 -84.771 c -52.64 0 -95.47 42.83 -95.47 95.47 s 42.83 95.47 95.47 95.47 c 43.976 0 92.099 -63.076 107.475 -84.968 c 15.52 22.071 63.488 84.771 107.332 84.771 c 52.64 0 95.47 -42.83 95.47 -95.47 S 362.917 107.305 310.277 107.305 z M 95.47 286.508 c -46.064 0 -83.536 -37.472 -83.536 -83.536 s 37.472 -83.536 83.536 -83.536 c 40.509 0 89.384 67.766 100.214 83.536 C 184.854 218.742 135.979 286.508 95.47 286.508 z M 310.277 286.311 c -40.509 0 -89.384 -67.766 -100.214 -83.536 c 10.824 -15.77 59.704 -83.536 100.214 -83.536 c 46.064 0 83.536 37.472 83.536 83.536 S 356.341 286.311 310.277 286.311 z" style="stroke: none; stroke-width: 1; stroke-dasharray: none; stroke-linecap: butt; stroke-linejoin: miter; stroke-miterlimit: 10; fill: #0f00e1; fill-rule: nonzero; opacity: 1;" transform="" stroke-linecap="round" />
</g>
  <g transform="translate(73.7 73.02) scale(1.61 1.61)">
   <text font-family="ADAMCG PRO" font-size="40" font-weight="normal" style="stroke: none; stroke-width: 1; stroke-dasharray: none; stroke-linecap: butt; stroke-linejoin: miter; stroke-miterlimit: 10; fill: #e06900; fill-rule: nonzero; opacity: 1;" ><tspan x="-17.05" y="8.98" style="stroke: none; stroke-width: 0; stroke-dasharray: none; stroke-linecap: butt; stroke-linejoin: miter; stroke-miterlimit: 4; fill: #e06900; fill-rule: ; opacity: 1;">M</tspan></text>
 </g>
</svg>